# xmcd CD database file
#
# Track frame offsets:
#	150
#	25784
#	43917
#	65723
#	85592
#	101587
#	123346
#	141202
#	160795
#	182721
#	202831
#	226175
#	243465
#	262990
#	283720
#	311502
#
# Disc length: 4437 seconds
#
# Revision: 6
# Processed by: cddbd v1.5.2PL0 Copyright (c) Steve Scherf et al.
# Submitted via: CDex 1.51
#
DISCID=d6115310
DTITLE=Rod Stewart - If we fall in love tonight
DYEAR=1996
DGENRE=Blues
TTITLE0=If we fall in love tonight
TTITLE1=For the first time
TTITLE2=When I need you
TTITLE3=Sometimes when we touch
TTITLE4=Tonight's the night (gonna be alright)
TTITLE5=I don't want to talk about it
TTITLE6=Have I told you lately (studio version Remix)
TTITLE7=Broken arrow
TTITLE8=Forever young (1996)
TTITLE9=You're in my heart
TTITLE10=My heart can't tell you no
TTITLE11=First cut is the deepest
TTITLE12=Sailing (live)
TTITLE13=Downtown train
TTITLE14=Tom traubert's blues (waltzing matilda)
TTITLE15=All for love (Brian Adams, Rod Stewart and Sting)
EXTD=YEAR: 1996
EXTT0=
EXTT1=
EXTT2=
EXTT3=
EXTT4=
EXTT5=
EXTT6=
EXTT7=
EXTT8=
EXTT9=
EXTT10=
EXTT11=
EXTT12=
EXTT13=
EXTT14=
EXTT15=
PLAYORDER=
